<svg xmlns="http://www.w3.org/2000/svg" viewBox="0 0 24 24" height="24" width="24" id="Interface-Essential-Refresh--Streamline-Pixel.svg"><desc>Interface Essential Refresh Streamline Icon: https://streamlinehq.com</desc><title>interface-essential-refresh</title><g><path d="M20.572499999999998 9.1425h1.1400000000000001v5.715h-1.1400000000000001Z" fill="#000000" stroke-width="1"></path><path d="M19.4325 14.857499999999998h1.1400000000000001v2.2874999999999996h-1.1400000000000001Z" fill="#000000" stroke-width="1"></path><path d="M19.4325 6.855h1.1400000000000001v2.2874999999999996h-1.1400000000000001Z" fill="#000000" stroke-width="1"></path><path d="m20.572499999999998 5.715 0 -1.1400000000000001 1.1400000000000001 0 0 -1.1475 -5.715 0 0 5.715 1.1475 0 0 -1.1400000000000001 1.1400000000000001 0 0 -1.1475 1.1475 0 0 -1.1400000000000001 1.1400000000000001 0z" fill="#000000" stroke-width="1"></path><path d="M18.285 17.145h1.1475v1.1400000000000001h-1.1475Z" fill="#000000" stroke-width="1"></path><path d="M17.145 18.285h1.1400000000000001v1.1475h-1.1400000000000001Z" fill="#000000" stroke-width="1"></path><path d="M14.857499999999998 19.4325h2.2874999999999996v1.1400000000000001h-2.2874999999999996Z" fill="#000000" stroke-width="1"></path><path d="M10.2825 20.572499999999998h4.574999999999999v1.1400000000000001h-4.574999999999999Z" fill="#000000" stroke-width="1"></path><path d="M9.1425 2.2874999999999996h4.574999999999999v1.1400000000000001h-4.574999999999999Z" fill="#000000" stroke-width="1"></path><path d="M6.855 3.4275h2.2874999999999996V4.574999999999999H6.855Z" fill="#000000" stroke-width="1"></path><path d="M5.715 4.574999999999999h1.1400000000000001v1.1400000000000001H5.715Z" fill="#000000" stroke-width="1"></path><path d="M4.574999999999999 5.715h1.1400000000000001v1.1400000000000001H4.574999999999999Z" fill="#000000" stroke-width="1"></path><path d="m3.4275 18.285 0 1.1475 -1.1400000000000001 0 0 1.1400000000000001 5.715 0 0 -5.715 -1.1475 0 0 1.1400000000000001 -1.1400000000000001 0 0 1.1475 -1.1400000000000001 0 0 1.1400000000000001 -1.1475 0z" fill="#000000" stroke-width="1"></path><path d="M3.4275 14.857499999999998H4.574999999999999v2.2874999999999996H3.4275Z" fill="#000000" stroke-width="1"></path><path d="M3.4275 6.855H4.574999999999999v2.2874999999999996H3.4275Z" fill="#000000" stroke-width="1"></path><path d="M2.2874999999999996 9.1425h1.1400000000000001v5.715H2.2874999999999996Z" fill="#000000" stroke-width="1"></path></g></svg>